<?xml version="1.0" encoding="utf-8"?>
<!-- Generator: Adobe Illustrator 24.1.1, SVG Export Plug-In . SVG Version: 6.00 Build 0)  -->
<svg version="1.1" id="Layer_1" xmlns="http://www.w3.org/2000/svg" xmlns:xlink="http://www.w3.org/1999/xlink" x="0px" y="0px"
	 viewBox="0 0 512 512" style="enable-background:new 0 0 512 512;" xml:space="preserve">
<g fill="#d35f5fff">
	<path d="M222.6,177.57v35.25h-25.8v43.1h25.8V384h53.05V255.93h35.58c0,0,3.35-20.65,4.98-43.28h-40.35v-29.42
		c0-4.43,5.8-10.35,11.52-10.35h28.88V128h-39.3C221.3,128,222.6,171.13,222.6,177.57z"/>
	<path d="M102.4,51.2c-28.28,0-51.2,22.92-51.2,51.2v307.2c0,28.27,22.92,51.2,51.2,51.2h307.2c28.3,0,51.2-22.92,51.2-51.2V102.4
		c0-28.28-22.9-51.2-51.2-51.2H102.4z M102.4,0h307.2C466.17,0,512,45.85,512,102.4v307.2c0,56.55-45.83,102.4-102.4,102.4H102.4
		C45.85,512,0,466.15,0,409.6V102.4C0,45.85,45.85,0,102.4,0z"/>
</g>
</svg>
