<?xml version="1.0" encoding="utf-8"?>
<!-- Generator: Adobe Illustrator 24.1.1, SVG Export Plug-In . SVG Version: 6.00 Build 0)  -->
<svg version="1.1" id="Layer_1" xmlns="http://www.w3.org/2000/svg" xmlns:xlink="http://www.w3.org/1999/xlink" x="0px" y="0px"
	 viewBox="0 0 512 512" style="enable-background:new 0 0 512 512;" xml:space="preserve">
<g fill="#d35f5fff">
	<path d="M384,284.92v94.65h-54.85v-88.33c0-22.17-7.92-37.3-27.8-37.3c-15.15,0-24.2,10.2-28.15,20.07
		c-1.45,3.52-1.83,8.45-1.83,13.35v92.2h-54.9c0,0,0.75-149.55,0-165.05h54.9v23.38l-0.35,0.53h0.35v-0.5
		c7.3-11.28,20.3-27.3,49.45-27.3C356.92,210.63,384,234.25,384,284.92z M159.07,134.93c-18.77,0-31.07,12.35-31.07,28.52
		c0,15.88,11.95,28.55,30.35,28.55h0.35c19.15,0,31.05-12.7,31.05-28.55C189.4,147.27,177.85,134.93,159.07,134.93z M131.27,379.58
		h54.88V214.52h-54.88V379.58z"/>
	<path d="M102.4,51.2c-28.28,0-51.2,22.92-51.2,51.2v307.2c0,28.27,22.92,51.2,51.2,51.2h307.2c28.3,0,51.2-22.92,51.2-51.2V102.4
		c0-28.28-22.9-51.2-51.2-51.2H102.4z M102.4,0h307.2C466.17,0,512,45.85,512,102.4v307.2c0,56.55-45.83,102.4-102.4,102.4H102.4
		C45.85,512,0,466.15,0,409.6V102.4C0,45.85,45.85,0,102.4,0z"/>
</g>
</svg>
