<?xml version="1.0" encoding="UTF-8" standalone="no"?>
<!-- Created with Inkscape (http://www.inkscape.org/) -->

<svg
   width="512"
   height="512"
   viewBox="0 0 135.46666 135.46667"
   version="1.1"
   id="svg5"
   inkscape:version="1.1.2 (0a00cf5339, 2022-02-04)"
   sodipodi:docname="print_1.svg"
   xmlns:inkscape="http://www.inkscape.org/namespaces/inkscape"
   xmlns:sodipodi="http://sodipodi.sourceforge.net/DTD/sodipodi-0.dtd"
   xmlns="http://www.w3.org/2000/svg"
   xmlns:svg="http://www.w3.org/2000/svg">
  <sodipodi:namedview
     id="namedview7"
     pagecolor="#ffffff"
     bordercolor="#666666"
     borderopacity="1.0"
     inkscape:pageshadow="2"
     inkscape:pageopacity="0.0"
     inkscape:pagecheckerboard="0"
     inkscape:document-units="mm"
     showgrid="false"
     inkscape:zoom="0.48462402"
     inkscape:cx="439.51598"
     inkscape:cy="309.5183"
     inkscape:window-width="1366"
     inkscape:window-height="710"
     inkscape:window-x="0"
     inkscape:window-y="30"
     inkscape:window-maximized="1"
     inkscape:current-layer="layer1"
     units="px"
     width="512px" />
  <defs
     id="defs2" />
  <g
     inkscape:label="Layer 1"
     inkscape:groupmode="layer"
     id="layer1">
    <text
       xml:space="preserve"
       style="font-size:36.6231px;line-height:1.25;font-family:monospace;-inkscape-font-specification:monospace;fill:#333333;fill-opacity:1;stroke-width:2.61593"
       x="101.35528"
       y="85.427986"
       id="text459"
       transform="scale(1.0503071,0.95210248)"><tspan
         sodipodi:role="line"
         id="tspan457"
         style="font-size:36.6231px;fill:#333333;fill-opacity:1;stroke-width:2.61593"
         x="101.35528"
         y="85.427986">1</tspan></text>
    <g
       id="g10416"
       transform="matrix(0.15211845,0,0,0.16138926,16.95349,20.923308)"
       style="fill:#333333">
      <g
         id="g10358"
         style="fill:#333333">
	<g
   id="g10356"
   style="fill:#333333">
		<rect
   x="143.438"
   y="439.875"
   width="286.875"
   height="19.125"
   id="rect10348"
   style="fill:#333333" />

		<rect
   x="143.438"
   y="497.25"
   width="286.875"
   height="19.125"
   id="rect10350"
   style="fill:#333333" />

		<circle
   cx="449.43799"
   cy="267.75"
   r="19.125"
   id="circle10352"
   style="fill:#333333" />

		<path
   d="m 506.812,172.125 h -38.25 V 38.25 C 468.562,17.212 451.349,0 430.312,0 H 143.438 c -21.038,0 -38.25,17.212 -38.25,38.25 v 133.875 h -38.25 c -32.513,0 -57.375,24.862 -57.375,57.375 V 401.625 C 9.562,434.138 34.425,459 66.938,459 h 38.25 v 76.5 c 0,21.037 17.212,38.25 38.25,38.25 h 286.875 c 21.037,0 38.25,-17.213 38.25,-38.25 V 459 h 38.25 c 32.513,0 57.375,-24.862 57.375,-57.375 V 229.5 c 0,-32.513 -24.863,-57.375 -57.376,-57.375 z M 124.312,38.25 c 0,-9.562 7.65,-19.125 19.125,-19.125 h 286.875 c 9.562,0 19.125,7.65 19.125,19.125 V 172.125 H 124.312 Z M 449.438,535.5 c 0,9.562 -7.65,19.125 -19.125,19.125 H 143.438 c -9.562,0 -19.125,-7.65 -19.125,-19.125 V 401.625 h 325.125 z m 95.624,-133.875 c 0,21.037 -17.213,38.25 -38.25,38.25 h -38.25 V 382.5 H 105.188 v 57.375 h -38.25 c -21.038,0 -38.25,-17.213 -38.25,-38.25 V 229.5 c 0,-21.038 17.212,-38.25 38.25,-38.25 h 439.875 c 21.037,0 38.25,17.212 38.25,38.25 v 172.125 z"
   id="path10354"
   style="fill:#333333" />

	</g>

</g>
      <g
         id="g10360"
         style="fill:#333333">
</g>
      <g
         id="g10362"
         style="fill:#333333">
</g>
      <g
         id="g10364"
         style="fill:#333333">
</g>
      <g
         id="g10366"
         style="fill:#333333">
</g>
      <g
         id="g10368"
         style="fill:#333333">
</g>
      <g
         id="g10370"
         style="fill:#333333">
</g>
      <g
         id="g10372"
         style="fill:#333333">
</g>
      <g
         id="g10374"
         style="fill:#333333">
</g>
      <g
         id="g10376"
         style="fill:#333333">
</g>
      <g
         id="g10378"
         style="fill:#333333">
</g>
      <g
         id="g10380"
         style="fill:#333333">
</g>
      <g
         id="g10382"
         style="fill:#333333">
</g>
      <g
         id="g10384"
         style="fill:#333333">
</g>
      <g
         id="g10386"
         style="fill:#333333">
</g>
      <g
         id="g10388"
         style="fill:#333333">
</g>
    </g>
  </g>
</svg>
